<svg id="Ebene_1" data-name="Ebene 1" xmlns="http://www.w3.org/2000/svg" viewBox="0 0 1384.33 1328.4"><defs>
    <style>
        path {
        fill: #7e6dbb;
        }
        @media ( prefers-color-scheme: dark ) {
        path {
        fill: #FFFFFF;
        }
        }
    </style>
</defs>
    <path class="cls-1" d="M1398.4,678.61C1324.72,663,1244.65,637,1161.07,601.16q-59.41-25.44-120.42-57.45a1359.06,1359.06,0,0,1-37.65,136q-58.23-17.76-118.32-40.42-48.58-18.4-97.84-40.07Q781,653,769.65,707.48c-24.44-7.92-48.92-16.15-73.62-25.11-5.84-2.12-11.51-4.38-17.31-6.55Q624.46,655.52,573.17,633a760.08,760.08,0,0,1,6.64,88.79c1.49,87.63-12.3,171-41.42,264.1-28,89.39-66.74,159.18-130.46,238.2-136-115.15-185.78-376.27-94.53-657.43,67.56,51.64,146.76,99.49,235,140.73-.88-23.79-2.82-47.36-5.89-70.24l-2.61-19.24A1775.77,1775.77,0,0,1,335,507C401.85,338.77,511.25,199.51,635.28,124.4c53.58,49.74,131.53,94.47,219.4,126.11s176.25,46.59,249.26,42.63a539.53,539.53,0,0,1,16.75,58.75c14,62.13,18.83,131.15,14,203.86l.56.26v0l1.26.59q14,6.4,28,12.41l2.78,1.21v-3c2.33-101.1-14-196.24-47-275.4,26.79-2.66,50.25-8.09,69.75-16.15l-1-3.89a489.1,489.1,0,0,1-77.69,0,442.32,442.32,0,0,0-38.69-66.88l-2.1-2.84c-.39-.52-.65-.87-2-2.71a369.74,369.74,0,0,0-42.68-48.92l-2.89,2.84a341.94,341.94,0,0,1,37.28,48.32l4.1,6.62a423.56,423.56,0,0,1,31.24,62.2C1024.83,263.67,945.88,245.1,867,216.7S715.18,152.22,656.36,112.34a423.38,423.38,0,0,1,63.71-28.1l7.46-2.33A342.19,342.19,0,0,1,787.1,68.42l-.4-4a370.26,370.26,0,0,0-64,10.53l-4.89,1.26-1.77.49a442.68,442.68,0,0,0-72.41,26.84,492.57,492.57,0,0,1-59.89-49.6l-3.22,2.33C590.39,74.88,605,94,624,113.15a593.06,593.06,0,0,0-109.77,75.53c-2.33,1.95-4.66,3.84-7,5.85s-4.14,3.75-6.22,5.63c-79.55,71.15-150.7,167.45-203.63,282.12A1199.5,1199.5,0,0,1,148.6,364.68,636.18,636.18,0,0,1,448.89,90.46l-1.54-3.75c-19.76,7.6-39,16.15-57.71,25.42A668.51,668.51,0,0,0,126.52,343.34c-13.54-14.65-23.6-26.3-32-35.46l-2.33,1.77c5.91,12.89,16.3,29.33,25.88,46.6A670.68,670.68,0,0,0,55.72,483.84c-115.48,317.29,23.9,665.07,313.49,819.48l1.26.65c1.77.93,3.45,2,5.22,2.87v-.12c2.33,1.21,4.66,2.33,7,3.63C464,1232.94,536.43,1132,590.62,1012.65a1020.74,1020.74,0,0,0,78.13-255.23q41.06,14.94,81.79,27.12A1168.26,1168.26,0,0,1,706.4,911.83c-60.13,146-183.67,306-294.11,413q7.92,3.45,15.91,6.73c6.36,2.59,12.7,4.92,19,7.25C590,1226.09,743.56,1041.19,818.57,859.37A1163.55,1163.55,0,0,0,861.9,734.8Q918.3,750,973,761.18c-109,269.67-293.18,466.15-492.52,589.15,8.15,2.63,16.31,5.05,24.51,7.38h-.12q9.9,2.77,19.8,5.2l.47.11c18.63,4.66,37.5,8.27,56.3,11.23,1.84.33,3.75.52,5.66.8,6.71,1,13.42,1.93,20.13,2.72,3.15.37,6.27.68,9.32,1,7,.73,13.79,1.38,20.69,1.89,2.79.21,5.59.33,8.38.49,7.2.42,14.42.81,21.6,1h6.52c7.81.14,15.61.24,23.3,0h1.35A665.2,665.2,0,0,0,805,1371.41c2.33-.42,4.66-.79,7-1.23,6.55-1.28,13-2.73,19.54-4.2,3.15-.7,6.29-1.37,9.32-2.12,6.06-1.44,12.07-3,18.06-4.66,3.52-1,7-1.88,10.53-2.88,5.73-1.66,11.39-3.41,17.07-5.2,3.73-1.19,7.46-2.33,11.16-3.61q8.18-2.74,16.31-5.71,5.81-2.11,11.65-4.33,7.8-3,15.54-6.22c4-1.63,7.89-3.33,11.83-5.06q7.49-3.24,14.89-6.68c4-1.89,8-3.85,12-5.8,4.66-2.33,9.5-4.66,14.19-7,4.12-2.14,8.2-4.4,12.27-6.62,4.5-2.44,9-4.89,13.42-7.43s8.46-5,12.68-7.59,8.34-5,12.46-7.62c4.66-2.94,9.11-6,13.65-9.06,3.61-2.33,7.27-4.66,10.86-7.27q11.29-7.91,22.27-16.31c2.33-1.84,4.66-3.75,7.13-5.64,5.8-4.66,11.64-9.1,17.23-13.86,2.87-2.33,5.62-4.91,8.44-7.38,4.66-4.08,9.32-8.13,14-12.35,3-2.72,5.84-5.54,8.75-8.34,4.31-4.1,8.62-8.2,12.82-12.42,2.93-2.95,5.8-6,8.69-9,4-4.22,8.06-8.43,12-12.77,2.87-3.14,5.64-6.33,8.46-9.55,3.82-4.38,7.62-8.78,11.35-13.25,2.72-3.29,5.4-6.62,8.08-10q5.44-6.85,10.74-13.84,3.88-5.13,7.66-10.35,5.2-7.14,10.21-14.49c2.33-3.51,4.82-7,7.17-10.64,3.29-5,6.48-10.09,9.65-15.21,2.33-3.61,4.47-7.2,6.64-10.86,3.14-5.29,6.15-10.69,9.15-16.1,2-3.61,4-7.2,6-10.85,3-5.71,5.92-11.65,8.81-17.36,1.72-3.49,3.51-7,5.19-10.48,3.08-6.5,6-13.14,8.88-19.78,1.3-3,2.68-5.92,3.93-8.92q6.09-14.56,11.65-29.52c3.8-10.41,7.22-21,10.44-31.38.74-2.33,1.49-4.66,2.21-7.13q4-13.65,7.46-27.37c1.09-4.38,2.14-8.76,3.14-13.11,1.24-5.41,2.33-10.81,3.47-16.31q2.73-13.27,4.89-26.58c.28-1.7.55-3.39.8-5.08,2.16-14,3.72-28.12,5-42.17-7.85-.21-15.8-.56-23.79-1-.14,1.09-.28,2.19-.46,3.28q-2.34,13.75-5.24,27.47l-.45,2q-2.71,12.62-6,25.23c-.77,3-1.63,5.91-2.47,8.87-1.75,6.41-3.52,12.81-5.48,19.2-3,9.59-6.15,19.19-9.62,28.74l-.16.52c-3.15,8.64-6.48,17.14-10,25.62-1.07,2.61-2.33,5.17-3.38,7.78-2.47,5.76-5,11.49-7.57,17.15-1.42,3-2.91,6-4.35,9-2.47,5.12-5,10.2-7.55,15.23-1.61,3.12-3.26,6.18-4.92,9.32q-3.88,7.27-8,14.4-2.61,4.65-5.29,9.08-4.17,7-8.55,14c-1.82,2.91-3.64,5.8-5.5,8.67-3,4.66-6.2,9.32-9.32,14-1.82,2.66-3.63,5.32-5.5,8-3.49,4.91-7,9.71-10.71,14.49-1.66,2.19-3.26,4.4-4.94,6.54q-7.2,9.33-14.72,18.18c-.59.67-1.12,1.39-1.7,2.07q-8.49,10-17.36,19.64c-1.49,1.63-3,3.19-4.66,4.8-4.38,4.66-8.81,9.31-13.32,13.83-2.33,2.33-4.5,4.36-6.74,6.55-3.91,3.8-7.85,7.59-11.85,11.3-2.54,2.33-5.13,4.66-7.69,7-3.82,3.42-7.69,6.8-11.65,10.13q-4.12,3.49-8.29,7-5.79,4.67-11.65,9.32c-2.89,2.33-5.78,4.49-8.69,6.71-3.94,3-7.92,5.87-11.93,8.76-3,2.12-5.92,4.26-8.9,6.33-4.14,2.87-8.34,5.66-12.55,8.41-2.94,1.94-5.83,3.89-8.79,5.78-4.66,2.94-9.32,5.75-14,8.57-2.61,1.56-5.2,3.19-7.83,4.66q-10.72,6.23-21.64,12c-3,1.59-6,3.05-9,4.66-4.52,2.33-9,4.66-13.61,6.83-3.58,1.72-7.24,3.35-10.88,5-4,1.86-8.1,3.72-12.18,5.49s-7.73,3.24-11.65,4.85-7.87,3.21-11.83,4.66-8.09,3.05-12.16,4.52-7.74,2.77-11.65,4.1-8.36,2.82-12.56,4.15c-3.84,1.23-7.71,2.33-11.65,3.54-4.28,1.28-8.59,2.54-12.9,3.72-3.8,1.05-7.64,2-11.46,3-4.43,1.11-8.83,2.33-13.28,3.3-3.68.87-7.41,1.61-11.11,2.33-4.66,1-9.32,2-14,2.92-2.82.53-5.64.95-8.46,1.44q-15,2.65-30.28,4.66c-3.4.42-6.78.93-10.21,1.3-4.66.52-9.55.91-14.35,1.33-3.75.33-7.47.7-11.22,1-4.66.32-9.32.53-14.17.77-3.87.18-7.71.37-11.65.46-4.66.14-9.31.19-14,.21q-32.16.15-64.21-2.91c165-102.5,317.11-265.57,426.74-475.07Q1097,770,1121.09,711.44c101.66,22.92,196.06,33.2,277.94,30.8.77-21.53.59-42.64-.63-63.63ZM274.84,535.46q-4.81,12.22-9.32,24.65c-73.19,200.95-75.4,402.6-19.56,553.39A638.29,638.29,0,0,1,137.42,386.67C171.9,437.39,218.3,487.68,274.84,535.46Z" transform="translate(-15.17 -53.91)"/><path class="cls-1" d="M1332.87,628.53v4l1.42.39q7.35,2.1,14.66,4.08l2.89.79-.35-3a668.49,668.49,0,0,0-11.21-67.28l-.37-1.65c-2.33-10.37-4.66-19.94-7.29-29.28l-1-3.78c-2.73-9.74-5.38-18.63-8.13-27.09-.35-1.1-.75-2.21-1.12-3.31l-.89-2.59c-3.35-10-6-17.63-8.75-24.76-.61-1.61-1.26-3.19-1.89-4.77l-1.33-3.34c-3.12-7.94-6-15.11-9.15-22.36-.91-2.1-1.89-4.19-2.87-6.27l-2.91-6.29c-2.68-5.89-5.36-11.81-8.25-17.63-1-2.12-2.17-4.19-3.28-6.29-.77-1.42-1.52-2.84-2.33-4.29l-2.5-4.87c-2.33-4.66-4.65-9.2-7.24-13.72l-3.61,1.94a632.64,632.64,0,0,1,65.23,240.27Z" transform="translate(-15.17 -53.91)"/>
</svg>
